 <svg id="switch" x="0px" y="0px"
            viewBox="0 0 511.999 511.999" style="enable-background:new 0 0 511.999 511.999;" xml:space="preserve">
            <g>
	            <g>
		            <path d="M376.499,120.5h-241C60.785,120.5,0,181.284,0,256s60.785,135.5,135.499,135.5h241c74.715,0,135.5-60.785,135.5-135.5
			        S451.214,120.5,376.499,120.5z M135.499,361.5C77.327,361.5,30,314.172,30,256c0-58.173,47.327-105.5,105.499-105.5h156.076
			        c-30.82,24.858-50.576,62.912-50.576,105.5s19.755,80.642,50.576,105.5H135.499z M376.499,361.5
			        c-58.173,0-105.5-47.327-105.5-105.5c0-58.173,47.327-105.5,105.5-105.5c58.173,0,105.5,47.327,105.5,105.5
			        C481.999,314.172,434.672,361.5,376.499,361.5z"/>
	            </g>
            </g>
        </svg>