<svg width="53" height="52" viewBox="0 0 53 52" fill="none" xmlns="http://www.w3.org/2000/svg">
<g id="settings 1">
<g clip-path="url(#clip0)">
<g id="Group">
<path id="Vector" d="M29.344 24.979C29.9529 24.6793 30.6312 24.5208 31.3349 24.5208C32.5012 24.5208 33.5977 24.9566 34.4242 25.748L36.2035 24.0356C40.6067 25.5212 45.6994 24.5701 49.2194 21.1823C52.1811 18.3316 53.3492 14.4094 52.7257 10.7123C52.657 10.3051 52.3575 9.96931 51.9498 9.84262C51.5421 9.71576 51.0946 9.81885 50.7917 10.1106L48.1498 12.6534C45.9983 14.7242 42.5098 14.7242 40.3584 12.6534C38.2067 10.5826 38.2067 7.22499 40.3584 5.15421L43.0003 2.61138C43.3034 2.31964 43.4114 1.8889 43.2794 1.49633C43.1476 1.10359 42.7982 0.816019 42.375 0.749897C38.534 0.149767 34.4588 1.27401 31.4972 4.12472C27.9249 7.56306 26.9635 12.5599 28.6065 16.8404L24.7475 20.5547L29.344 24.979Z" fill="#E07EDC"/>
<path id="Vector_2" d="M22.312 31.7096L17.7348 27.3041L1.72956 42.7089C-0.351584 44.712 -0.351584 47.9597 1.72956 49.9628C3.8107 51.9658 7.18484 51.9658 9.26598 49.9628L23.0635 36.6828C21.6719 35.3363 21.421 33.3033 22.312 31.7096Z" fill="#E07EDC"/>
<path id="Vector_3" d="M32.5203 27.5967C32.1931 27.2817 31.7639 27.1241 31.335 27.1241C30.906 27.1241 30.4769 27.2817 30.1496 27.5967L29.1942 28.5163L12.1743 12.1347L12.9699 11.369C13.6947 10.6715 13.6047 9.51448 12.7785 8.92892L5.83444 4.00657C5.16711 3.53365 4.24104 3.60081 3.65503 4.16484L0.706602 7.00288C0.120594 7.56692 0.0508143 8.45843 0.542159 9.10056L5.65611 15.7843C6.26448 16.5793 7.46589 16.6668 8.19127 15.9684L8.9868 15.2025L26.0066 31.5841L24.9839 32.5685C24.3292 33.1986 24.3292 34.2201 24.9839 34.8503L40.6851 49.9627C42.7663 51.9658 46.1404 51.9658 48.2216 49.9627C50.3027 47.9596 50.3027 44.712 48.2216 42.7089L32.5203 27.5967Z" fill="#E07EDC"/>
</g>
</g>
</g>
<defs>
<clipPath id="clip0">
<rect x="0.101501" y="0.593018" width="52.8541" height="50.8721" rx="20" fill="white"/>
</clipPath>
</defs>
</svg>
